<?xml version="1.0" encoding="UTF-8"?>
<svg xmlns="http://www.w3.org/2000/svg" xmlns:xlink="http://www.w3.org/1999/xlink" version="1.1" width="256px" height="256px" viewBox="0 0 256 256"><defs><rect id="r0" width="10" height="10" fill="#000000"/></defs><rect x="0" y="0" width="256" height="256" fill="#fefefe"/><use x="3" y="3" xlink:href="#r0"/><use x="13" y="3" xlink:href="#r0"/><use x="23" y="3" xlink:href="#r0"/><use x="33" y="3" xlink:href="#r0"/><use x="43" y="3" xlink:href="#r0"/><use x="53" y="3" xlink:href="#r0"/><use x="63" y="3" xlink:href="#r0"/><use x="83" y="3" xlink:href="#r0"/><use x="103" y="3" xlink:href="#r0"/><use x="123" y="3" xlink:href="#r0"/><use x="133" y="3" xlink:href="#r0"/><use x="183" y="3" xlink:href="#r0"/><use x="193" y="3" xlink:href="#r0"/><use x="203" y="3" xlink:href="#r0"/><use x="213" y="3" xlink:href="#r0"/><use x="223" y="3" xlink:href="#r0"/><use x="233" y="3" xlink:href="#r0"/><use x="243" y="3" xlink:href="#r0"/><use x="3" y="13" xlink:href="#r0"/><use x="63" y="13" xlink:href="#r0"/><use x="93" y="13" xlink:href="#r0"/><use x="103" y="13" xlink:href="#r0"/><use x="113" y="13" xlink:href="#r0"/><use x="123" y="13" xlink:href="#r0"/><use x="133" y="13" xlink:href="#r0"/><use x="163" y="13" xlink:href="#r0"/><use x="183" y="13" xlink:href="#r0"/><use x="243" y="13" xlink:href="#r0"/><use x="3" y="23" xlink:href="#r0"/><use x="23" y="23" xlink:href="#r0"/><use x="33" y="23" xlink:href="#r0"/><use x="43" y="23" xlink:href="#r0"/><use x="63" y="23" xlink:href="#r0"/><use x="83" y="23" xlink:href="#r0"/><use x="93" y="23" xlink:href="#r0"/><use x="103" y="23" xlink:href="#r0"/><use x="133" y="23" xlink:href="#r0"/><use x="143" y="23" xlink:href="#r0"/><use x="183" y="23" xlink:href="#r0"/><use x="203" y="23" xlink:href="#r0"/><use x="213" y="23" xlink:href="#r0"/><use x="223" y="23" xlink:href="#r0"/><use x="243" y="23" xlink:href="#r0"/><use x="3" y="33" xlink:href="#r0"/><use x="23" y="33" xlink:href="#r0"/><use x="33" y="33" xlink:href="#r0"/><use x="43" y="33" xlink:href="#r0"/><use x="63" y="33" xlink:href="#r0"/><use x="83" y="33" xlink:href="#r0"/><use x="93" y="33" xlink:href="#r0"/><use x="103" y="33" xlink:href="#r0"/><use x="123" y="33" xlink:href="#r0"/><use x="133" y="33" xlink:href="#r0"/><use x="153" y="33" xlink:href="#r0"/><use x="183" y="33" xlink:href="#r0"/><use x="203" y="33" xlink:href="#r0"/><use x="213" y="33" xlink:href="#r0"/><use x="223" y="33" xlink:href="#r0"/><use x="243" y="33" xlink:href="#r0"/><use x="3" y="43" xlink:href="#r0"/><use x="23" y="43" xlink:href="#r0"/><use x="33" y="43" xlink:href="#r0"/><use x="43" y="43" xlink:href="#r0"/><use x="63" y="43" xlink:href="#r0"/><use x="83" y="43" xlink:href="#r0"/><use x="113" y="43" xlink:href="#r0"/><use x="123" y="43" xlink:href="#r0"/><use x="153" y="43" xlink:href="#r0"/><use x="163" y="43" xlink:href="#r0"/><use x="183" y="43" xlink:href="#r0"/><use x="203" y="43" xlink:href="#r0"/><use x="213" y="43" xlink:href="#r0"/><use x="223" y="43" xlink:href="#r0"/><use x="243" y="43" xlink:href="#r0"/><use x="3" y="53" xlink:href="#r0"/><use x="63" y="53" xlink:href="#r0"/><use x="103" y="53" xlink:href="#r0"/><use x="113" y="53" xlink:href="#r0"/><use x="133" y="53" xlink:href="#r0"/><use x="163" y="53" xlink:href="#r0"/><use x="183" y="53" xlink:href="#r0"/><use x="243" y="53" xlink:href="#r0"/><use x="3" y="63" xlink:href="#r0"/><use x="13" y="63" xlink:href="#r0"/><use x="23" y="63" xlink:href="#r0"/><use x="33" y="63" xlink:href="#r0"/><use x="43" y="63" xlink:href="#r0"/><use x="53" y="63" xlink:href="#r0"/><use x="63" y="63" xlink:href="#r0"/><use x="83" y="63" xlink:href="#r0"/><use x="103" y="63" xlink:href="#r0"/><use x="123" y="63" xlink:href="#r0"/><use x="143" y="63" xlink:href="#r0"/><use x="163" y="63" xlink:href="#r0"/><use x="183" y="63" xlink:href="#r0"/><use x="193" y="63" xlink:href="#r0"/><use x="203" y="63" xlink:href="#r0"/><use x="213" y="63" xlink:href="#r0"/><use x="223" y="63" xlink:href="#r0"/><use x="233" y="63" xlink:href="#r0"/><use x="243" y="63" xlink:href="#r0"/><use x="103" y="73" xlink:href="#r0"/><use x="123" y="73" xlink:href="#r0"/><use x="143" y="73" xlink:href="#r0"/><use x="163" y="73" xlink:href="#r0"/><use x="3" y="83" xlink:href="#r0"/><use x="13" y="83" xlink:href="#r0"/><use x="23" y="83" xlink:href="#r0"/><use x="33" y="83" xlink:href="#r0"/><use x="63" y="83" xlink:href="#r0"/><use x="83" y="83" xlink:href="#r0"/><use x="103" y="83" xlink:href="#r0"/><use x="113" y="83" xlink:href="#r0"/><use x="123" y="83" xlink:href="#r0"/><use x="143" y="83" xlink:href="#r0"/><use x="163" y="83" xlink:href="#r0"/><use x="173" y="83" xlink:href="#r0"/><use x="203" y="83" xlink:href="#r0"/><use x="213" y="83" xlink:href="#r0"/><use x="223" y="83" xlink:href="#r0"/><use x="243" y="83" xlink:href="#r0"/><use x="13" y="93" xlink:href="#r0"/><use x="23" y="93" xlink:href="#r0"/><use x="33" y="93" xlink:href="#r0"/><use x="43" y="93" xlink:href="#r0"/><use x="103" y="93" xlink:href="#r0"/><use x="123" y="93" xlink:href="#r0"/><use x="133" y="93" xlink:href="#r0"/><use x="143" y="93" xlink:href="#r0"/><use x="163" y="93" xlink:href="#r0"/><use x="193" y="93" xlink:href="#r0"/><use x="233" y="93" xlink:href="#r0"/><use x="3" y="103" xlink:href="#r0"/><use x="33" y="103" xlink:href="#r0"/><use x="43" y="103" xlink:href="#r0"/><use x="63" y="103" xlink:href="#r0"/><use x="93" y="103" xlink:href="#r0"/><use x="103" y="103" xlink:href="#r0"/><use x="113" y="103" xlink:href="#r0"/><use x="123" y="103" xlink:href="#r0"/><use x="143" y="103" xlink:href="#r0"/><use x="183" y="103" xlink:href="#r0"/><use x="193" y="103" xlink:href="#r0"/><use x="3" y="113" xlink:href="#r0"/><use x="13" y="113" xlink:href="#r0"/><use x="43" y="113" xlink:href="#r0"/><use x="53" y="113" xlink:href="#r0"/><use x="93" y="113" xlink:href="#r0"/><use x="103" y="113" xlink:href="#r0"/><use x="133" y="113" xlink:href="#r0"/><use x="143" y="113" xlink:href="#r0"/><use x="153" y="113" xlink:href="#r0"/><use x="173" y="113" xlink:href="#r0"/><use x="183" y="113" xlink:href="#r0"/><use x="213" y="113" xlink:href="#r0"/><use x="223" y="113" xlink:href="#r0"/><use x="3" y="123" xlink:href="#r0"/><use x="13" y="123" xlink:href="#r0"/><use x="23" y="123" xlink:href="#r0"/><use x="43" y="123" xlink:href="#r0"/><use x="63" y="123" xlink:href="#r0"/><use x="73" y="123" xlink:href="#r0"/><use x="93" y="123" xlink:href="#r0"/><use x="103" y="123" xlink:href="#r0"/><use x="123" y="123" xlink:href="#r0"/><use x="133" y="123" xlink:href="#r0"/><use x="143" y="123" xlink:href="#r0"/><use x="183" y="123" xlink:href="#r0"/><use x="203" y="123" xlink:href="#r0"/><use x="223" y="123" xlink:href="#r0"/><use x="233" y="123" xlink:href="#r0"/><use x="243" y="123" xlink:href="#r0"/><use x="13" y="133" xlink:href="#r0"/><use x="33" y="133" xlink:href="#r0"/><use x="73" y="133" xlink:href="#r0"/><use x="83" y="133" xlink:href="#r0"/><use x="93" y="133" xlink:href="#r0"/><use x="113" y="133" xlink:href="#r0"/><use x="123" y="133" xlink:href="#r0"/><use x="153" y="133" xlink:href="#r0"/><use x="173" y="133" xlink:href="#r0"/><use x="183" y="133" xlink:href="#r0"/><use x="193" y="133" xlink:href="#r0"/><use x="203" y="133" xlink:href="#r0"/><use x="243" y="133" xlink:href="#r0"/><use x="13" y="143" xlink:href="#r0"/><use x="33" y="143" xlink:href="#r0"/><use x="43" y="143" xlink:href="#r0"/><use x="53" y="143" xlink:href="#r0"/><use x="63" y="143" xlink:href="#r0"/><use x="83" y="143" xlink:href="#r0"/><use x="103" y="143" xlink:href="#r0"/><use x="113" y="143" xlink:href="#r0"/><use x="133" y="143" xlink:href="#r0"/><use x="173" y="143" xlink:href="#r0"/><use x="183" y="143" xlink:href="#r0"/><use x="203" y="143" xlink:href="#r0"/><use x="223" y="143" xlink:href="#r0"/><use x="233" y="143" xlink:href="#r0"/><use x="3" y="153" xlink:href="#r0"/><use x="23" y="153" xlink:href="#r0"/><use x="33" y="153" xlink:href="#r0"/><use x="53" y="153" xlink:href="#r0"/><use x="83" y="153" xlink:href="#r0"/><use x="113" y="153" xlink:href="#r0"/><use x="193" y="153" xlink:href="#r0"/><use x="203" y="153" xlink:href="#r0"/><use x="243" y="153" xlink:href="#r0"/><use x="33" y="163" xlink:href="#r0"/><use x="53" y="163" xlink:href="#r0"/><use x="63" y="163" xlink:href="#r0"/><use x="73" y="163" xlink:href="#r0"/><use x="83" y="163" xlink:href="#r0"/><use x="123" y="163" xlink:href="#r0"/><use x="163" y="163" xlink:href="#r0"/><use x="173" y="163" xlink:href="#r0"/><use x="183" y="163" xlink:href="#r0"/><use x="193" y="163" xlink:href="#r0"/><use x="203" y="163" xlink:href="#r0"/><use x="213" y="163" xlink:href="#r0"/><use x="223" y="163" xlink:href="#r0"/><use x="233" y="163" xlink:href="#r0"/><use x="243" y="163" xlink:href="#r0"/><use x="83" y="173" xlink:href="#r0"/><use x="133" y="173" xlink:href="#r0"/><use x="153" y="173" xlink:href="#r0"/><use x="163" y="173" xlink:href="#r0"/><use x="203" y="173" xlink:href="#r0"/><use x="223" y="173" xlink:href="#r0"/><use x="243" y="173" xlink:href="#r0"/><use x="3" y="183" xlink:href="#r0"/><use x="13" y="183" xlink:href="#r0"/><use x="23" y="183" xlink:href="#r0"/><use x="33" y="183" xlink:href="#r0"/><use x="43" y="183" xlink:href="#r0"/><use x="53" y="183" xlink:href="#r0"/><use x="63" y="183" xlink:href="#r0"/><use x="93" y="183" xlink:href="#r0"/><use x="163" y="183" xlink:href="#r0"/><use x="183" y="183" xlink:href="#r0"/><use x="203" y="183" xlink:href="#r0"/><use x="223" y="183" xlink:href="#r0"/><use x="233" y="183" xlink:href="#r0"/><use x="243" y="183" xlink:href="#r0"/><use x="3" y="193" xlink:href="#r0"/><use x="63" y="193" xlink:href="#r0"/><use x="93" y="193" xlink:href="#r0"/><use x="113" y="193" xlink:href="#r0"/><use x="153" y="193" xlink:href="#r0"/><use x="163" y="193" xlink:href="#r0"/><use x="203" y="193" xlink:href="#r0"/><use x="243" y="193" xlink:href="#r0"/><use x="3" y="203" xlink:href="#r0"/><use x="23" y="203" xlink:href="#r0"/><use x="33" y="203" xlink:href="#r0"/><use x="43" y="203" xlink:href="#r0"/><use x="63" y="203" xlink:href="#r0"/><use x="143" y="203" xlink:href="#r0"/><use x="163" y="203" xlink:href="#r0"/><use x="173" y="203" xlink:href="#r0"/><use x="183" y="203" xlink:href="#r0"/><use x="193" y="203" xlink:href="#r0"/><use x="203" y="203" xlink:href="#r0"/><use x="213" y="203" xlink:href="#r0"/><use x="233" y="203" xlink:href="#r0"/><use x="3" y="213" xlink:href="#r0"/><use x="23" y="213" xlink:href="#r0"/><use x="33" y="213" xlink:href="#r0"/><use x="43" y="213" xlink:href="#r0"/><use x="63" y="213" xlink:href="#r0"/><use x="83" y="213" xlink:href="#r0"/><use x="103" y="213" xlink:href="#r0"/><use x="133" y="213" xlink:href="#r0"/><use x="163" y="213" xlink:href="#r0"/><use x="173" y="213" xlink:href="#r0"/><use x="183" y="213" xlink:href="#r0"/><use x="203" y="213" xlink:href="#r0"/><use x="213" y="213" xlink:href="#r0"/><use x="223" y="213" xlink:href="#r0"/><use x="233" y="213" xlink:href="#r0"/><use x="243" y="213" xlink:href="#r0"/><use x="3" y="223" xlink:href="#r0"/><use x="23" y="223" xlink:href="#r0"/><use x="33" y="223" xlink:href="#r0"/><use x="43" y="223" xlink:href="#r0"/><use x="63" y="223" xlink:href="#r0"/><use x="83" y="223" xlink:href="#r0"/><use x="93" y="223" xlink:href="#r0"/><use x="103" y="223" xlink:href="#r0"/><use x="143" y="223" xlink:href="#r0"/><use x="153" y="223" xlink:href="#r0"/><use x="163" y="223" xlink:href="#r0"/><use x="183" y="223" xlink:href="#r0"/><use x="203" y="223" xlink:href="#r0"/><use x="223" y="223" xlink:href="#r0"/><use x="233" y="223" xlink:href="#r0"/><use x="3" y="233" xlink:href="#r0"/><use x="63" y="233" xlink:href="#r0"/><use x="83" y="233" xlink:href="#r0"/><use x="103" y="233" xlink:href="#r0"/><use x="113" y="233" xlink:href="#r0"/><use x="123" y="233" xlink:href="#r0"/><use x="133" y="233" xlink:href="#r0"/><use x="143" y="233" xlink:href="#r0"/><use x="173" y="233" xlink:href="#r0"/><use x="203" y="233" xlink:href="#r0"/><use x="223" y="233" xlink:href="#r0"/><use x="3" y="243" xlink:href="#r0"/><use x="13" y="243" xlink:href="#r0"/><use x="23" y="243" xlink:href="#r0"/><use x="33" y="243" xlink:href="#r0"/><use x="43" y="243" xlink:href="#r0"/><use x="53" y="243" xlink:href="#r0"/><use x="63" y="243" xlink:href="#r0"/><use x="83" y="243" xlink:href="#r0"/><use x="93" y="243" xlink:href="#r0"/><use x="113" y="243" xlink:href="#r0"/><use x="123" y="243" xlink:href="#r0"/><use x="173" y="243" xlink:href="#r0"/><use x="183" y="243" xlink:href="#r0"/><use x="193" y="243" xlink:href="#r0"/><use x="203" y="243" xlink:href="#r0"/><use x="213" y="243" xlink:href="#r0"/><use x="223" y="243" xlink:href="#r0"/><use x="233" y="243" xlink:href="#r0"/><use x="243" y="243" xlink:href="#r0"/></svg>
